<svg height="511pt" viewBox="1 -67 511.99998 511" width="511pt" xmlns="http://www.w3.org/2000/svg"><path d="m313.425781 72.140625-198.835937 21.703125 56.261718 173.996094h265.355469l20.734375-19.476563 33.355469-154.519531zm0 0" fill="#fd747f"/><path d="m114.589844 93.84375 9.992187 30.90625h359.042969l6.671875-30.90625-176.871094-21.703125zm0 0" fill="#f25759"/><path d="m490.296875 50.4375h-375.707031v43.40625h375.707031c11.988281 0 21.703125-9.714844 21.703125-21.703125s-9.714844-21.703125-21.703125-21.703125zm0 0" fill="#fedd60"/><g fill="#3a484a"><path d="m236.925781 177.101562c-4.265625 0-7.726562-3.457031-7.726562-7.726562v-13.84375c0-4.265625 3.460937-7.726562 7.726562-7.726562 4.269531 0 7.726563 3.460937 7.726563 7.726562v13.84375c0 4.269531-3.457032 7.726562-7.726563 7.726562zm0 0"/><path d="m389.925781 177.101562c-4.265625 0-7.722656-3.457031-7.722656-7.726562v-13.84375c0-4.265625 3.457031-7.726562 7.722656-7.726562 4.269531 0 7.726563 3.460937 7.726563 7.726562v13.84375c0 4.269531-3.457032 7.726562-7.726563 7.726562zm0 0"/><path d="m313.425781 184.492188c-9.585937 0-18.589843-4.007813-24.695312-10.992188-2.8125-3.214844-2.480469-8.09375.730469-10.902344 3.210937-2.8125 8.09375-2.484375 10.902343.730469 3.171875 3.628906 7.933594 5.710937 13.0625 5.710937 5.132813 0 9.890625-2.082031 13.066407-5.710937 2.808593-3.214844 7.6875-3.542969 10.902343-.730469 3.210938 2.808594 3.539063 7.6875.730469 10.902344-6.109375 6.984375-15.109375 10.992188-24.699219 10.992188zm0 0"/></g><path d="m271.042969 336.347656c0 22.464844-18.214844 40.679688-40.679688 40.679688-22.46875 0-40.679687-18.214844-40.679687-40.679688 0-22.46875 18.210937-40.679687 40.679687-40.679687 22.464844 0 40.679688 18.210937 40.679688 40.679687zm0 0" fill="#4f648f"/><path d="m243.609375 336.347656c0 7.316406-5.929687 13.246094-13.246094 13.246094-7.316406 0-13.246093-5.929688-13.246093-13.246094s5.929687-13.246094 13.246093-13.246094c7.316407 0 13.246094 5.929688 13.246094 13.246094zm0 0" fill="#d4d4d4"/><path d="m437.390625 336.347656c0 22.464844-18.210937 40.679688-40.679687 40.679688-22.464844 0-40.679688-18.214844-40.679688-40.679688 0-22.46875 18.214844-40.679687 40.679688-40.679687 22.46875 0 40.679687 18.210937 40.679687 40.679687zm0 0" fill="#4f648f"/><path d="m409.957031 336.347656c0 7.316406-5.929687 13.246094-13.246093 13.246094-7.3125 0-13.242188-5.929688-13.242188-13.246094s5.929688-13.246094 13.242188-13.246094c7.316406 0 13.246093 5.929688 13.246093 13.246094zm0 0" fill="#d4d4d4"/><path d="m456.941406 295.667969h-288.542968c-10.289063 0-19.394532-6.648438-22.527344-16.445313l-67.585938-231.421875h-54.632812c-13.0625 0-23.652344-10.589843-23.652344-23.648437 0-13.0625 10.589844-23.652344 23.652344-23.652344h71.898437c10.285157 0 19.394531 6.648438 22.527344 16.445312l67.585937 231.417969h271.277344c13.0625 0 23.652344 10.589844 23.652344 23.652344s-10.589844 23.652344-23.652344 23.652344zm0 0" fill="#d4d4d4"/></svg>